<svg t="1665597777234" class="icon" viewBox="0 0 1024 1024" version="1.1" xmlns="http://www.w3.org/2000/svg" p-id="6314"
     width="16" height="16">
    <path d="M451.03 86.25a17.84 17.84 0 0 1 5.26 12.68l-0.01 179.86c0 9.91-8.03 17.96-17.96 17.96-9.91 0-17.94-8.04-17.96-17.96l0.01-179.86c0-9.91 8.03-17.96 17.96-17.96 4.96 0 9.45 2.01 12.7 5.28z"
          fill="#F6BB42" p-id="6315"></path>
    <path d="M95.32 223.07c4.6 0 9.19 1.74 12.7 5.25l127.17 127.17c7 7.01 7.01 18.38 0 25.39-7.01 7.01-18.39 7.01-25.39 0L82.62 253.71c-7.01-7.01-7.01-18.38 0-25.39 3.51-3.51 8.1-5.25 12.7-5.25zM654.17 781.9c4.6 0 9.19 1.77 12.7 5.27l127.17 127.17c7.01 7.01 7.01 18.38 0 25.39-7.01 7.01-18.38 7.01-25.39 0L641.47 812.57c-7-7.01-7-18.38 0.01-25.39 3.5-3.51 8.1-5.28 12.69-5.28z"
          fill="#FFCE54" p-id="6316"></path>
    <path d="M730.89 571.33c3.24-3.24 7.74-5.27 12.7-5.27l179.84 0.03c9.91 0 17.96 8.02 17.96 17.96 0 9.91-8.04 17.96-17.96 17.96H743.58c-9.91-0.03-17.96-8.07-17.96-17.98 0.01-4.97 2.01-9.45 5.27-12.7z"
          fill="#F6BB42" p-id="6317"></path>
    <path d="M636.23 368.2c-0.01-4.61 1.74-9.2 5.25-12.71l127.17-127.17c7.01-7.01 18.38-7.01 25.39 0 7.01 7.01 7.01 18.38 0 25.39L666.87 380.88c-7.01 7.01-18.38 7.01-25.39 0-3.51-3.51-5.27-8.1-5.25-12.68zM438.34 817.45c-128.71 0-233.43-104.71-233.43-233.43 0-128.7 104.72-233.41 233.43-233.41 128.7 0 233.42 104.71 233.42 233.41 0 128.72-104.72 233.43-233.42 233.43z"
          fill="#FFCE54" p-id="6318"></path>
    <path d="M438.34 332.65c-138.84 0-251.39 112.54-251.39 251.36 0 138.85 112.55 251.39 251.39 251.39 138.83 0 251.38-112.54 251.38-251.39-0.01-138.82-112.56-251.36-251.38-251.36z m152.35 403.74c-40.7 40.69-94.8 63.1-152.35 63.1-57.56 0-111.67-22.41-152.36-63.1-40.7-40.71-63.11-94.82-63.11-152.38 0-57.54 22.41-111.64 63.11-152.35 40.7-40.69 94.8-63.1 152.36-63.1 57.55 0 111.66 22.41 152.35 63.1 40.7 40.71 63.11 94.82 63.11 152.35 0 57.56-22.41 111.67-63.11 152.38z"
          fill="#F6BB42" p-id="6319"></path>
    <path d="M552.47 655.39c-102.44 0-185.5-83.06-185.5-185.5 0-23.04 4.2-45.09 11.88-65.42-70.16 26.45-120.08 94.21-120.08 173.63 0 102.44 83.05 185.47 185.5 185.47 79.41 0 147.17-49.89 173.62-120.08-20.35 7.68-42.39 11.9-65.42 11.9z"
          fill="#646C77" p-id="6320"></path>
    <path d="M480.18 727.67c-102.45 0-185.5-83.03-185.5-185.47 0-42.08 14-80.87 37.59-111.98-44.65 33.88-73.5 87.51-73.5 147.9 0 102.44 83.05 185.47 185.5 185.47 60.37 0 114-28.85 147.87-73.49-31.11 23.56-69.9 37.57-111.96 37.57z"
          fill="#434A54" p-id="6321"></path>
</svg>